<svg viewBox="0 0 200 280" xmlns="http://www.w3.org/2000/svg">
  <defs>
    <linearGradient id="bgGrad08" x1="0%" y1="0%" x2="100%" y2="100%">
      <stop offset="0%" style="stop-color:#667eea;stop-opacity:1" />
      <stop offset="100%" style="stop-color:#764ba2;stop-opacity:1" />
    </linearGradient>
    <filter id="blur08">
      <feGaussianBlur in="SourceGraphic" stdDeviation="20"/>
    </filter>
  </defs>
  <!-- Background -->
  <rect width="200" height="280" fill="url(#bgGrad08)"/>
  
  <!-- Geometric decorative elements -->
  <rect x="150" y="-20" width="60" height="60" fill="#ffffff" opacity="0.1" rx="12" transform="rotate(45 180 10)"/>
  <rect x="-30" y="220" width="80" height="80" fill="#ffffff" opacity="0.05" rx="16" transform="rotate(-30 10 260)"/>
  <rect x="40" y="120" width="40" height="40" fill="#ffffff" opacity="0.03" rx="8" transform="rotate(60 60 140)"/>
  
  <!-- Header Card with glassmorphism -->
  <rect x="15" y="15" width="170" height="70" fill="#ffffff" opacity="0.95" rx="15" filter="url(#blur08)"/>
  <rect x="15" y="15" width="170" height="70" fill="#ffffff" opacity="0.95" rx="15"/>
  
  <!-- Profile Photo -->
  <circle cx="100" cy="40" r="15" fill="url(#bgGrad08)" opacity="0.8"/>
  <!-- Name with gradient text effect -->
  <rect x="60" y="58" width="80" height="8" fill="url(#bgGrad08)" rx="2"/>
  <rect x="70" y="69" width="60" height="5" fill="#4a5568" rx="2"/>
  
  <!-- Contact Hexagons -->
  <polygon points="40,78 48,74 56,78 56,86 48,90 40,86" fill="url(#bgGrad08)"/>
  <polygon points="70,78 78,74 86,78 86,86 78,90 70,86" fill="url(#bgGrad08)"/>
  <polygon points="100,78 108,74 116,78 116,86 108,90 100,86" fill="url(#bgGrad08)"/>
  <polygon points="130,78 138,74 146,78 146,86 138,90 130,86" fill="url(#bgGrad08)"/>
  
  <!-- Left Column Cards -->
  <!-- Profile Card -->
  <rect x="15" y="100" width="85" height="45" fill="#ffffff" opacity="0.95" rx="10"/>
  <rect x="20" y="105" width="60" height="6" fill="url(#bgGrad08)" rx="2"/>
  <rect x="20" y="115" width="75" height="3" fill="#4a5568" opacity="0.6" rx="1"/>
  <rect x="20" y="120" width="70" height="3" fill="#4a5568" opacity="0.6" rx="1"/>
  <rect x="20" y="125" width="65" height="3" fill="#4a5568" opacity="0.6" rx="1"/>
  <rect x="20" y="130" width="60" height="3" fill="#4a5568" opacity="0.6" rx="1"/>
  <rect x="20" y="135" width="55" height="3" fill="#4a5568" opacity="0.6" rx="1"/>
  
  <!-- Skills Card with hexagonal elements -->
  <rect x="15" y="155" width="85" height="55" fill="#ffffff" opacity="0.95" rx="10"/>
  <rect x="20" y="160" width="50" height="6" fill="url(#bgGrad08)" rx="2"/>
  <!-- Hexagonal skill badges -->
  <polygon points="25,175 35,170 45,175 45,185 35,190 25,185" fill="url(#bgGrad08)"/>
  <polygon points="50,175 60,170 70,175 70,185 60,190 50,185" fill="url(#bgGrad08)"/>
  <polygon points="75,175 85,170 95,175 95,185 85,190 75,185" fill="url(#bgGrad08)"/>
  <polygon points="38,195 48,190 58,195 58,205 48,210 38,205" fill="url(#bgGrad08)"/>
  
  <!-- Languages Card -->
  <rect x="15" y="220" width="85" height="50" fill="#ffffff" opacity="0.95" rx="10"/>
  <rect x="20" y="225" width="40" height="6" fill="url(#bgGrad08)" rx="2"/>
  <rect x="20" y="238" width="75" height="8" fill="#f0f4f8" rx="4"/>
  <rect x="20" y="248" width="75" height="8" fill="#f0f4f8" rx="4"/>
  <rect x="20" y="258" width="75" height="8" fill="#f0f4f8" rx="4"/>
  
  <!-- Right Column Cards -->
  <!-- Experience Card -->
  <rect x="110" y="100" width="75" height="80" fill="#ffffff" opacity="0.95" rx="10"/>
  <rect x="115" y="105" width="55" height="6" fill="url(#bgGrad08)" rx="2"/>
  <rect x="115" y="118" width="65" height="15" fill="#f0f4f8" rx="6"/>
  <rect x="115" y="138" width="65" height="15" fill="#f0f4f8" rx="6"/>
  <rect x="115" y="158" width="65" height="15" fill="#f0f4f8" rx="6"/>
  
  <!-- Education Card -->
  <rect x="110" y="190" width="75" height="40" fill="#ffffff" opacity="0.95" rx="10"/>
  <rect x="115" y="195" width="45" height="6" fill="url(#bgGrad08)" rx="2"/>
  <rect x="115" y="208" width="65" height="8" fill="#f0f4f8" rx="4"/>
  <rect x="115" y="220" width="65" height="8" fill="#f0f4f8" rx="4"/>
  
  <!-- Projects Card -->
  <rect x="110" y="240" width="75" height="30" fill="#ffffff" opacity="0.95" rx="10"/>
  <rect x="115" y="245" width="35" height="6" fill="url(#bgGrad08)" rx="2"/>
  <rect x="115" y="255" width="65" height="6" fill="#f0f4f8" rx="3"/>
  <rect x="115" y="263" width="65" height="4" fill="#f0f4f8" rx="2"/>
</svg>