<svg viewBox="0 0 200 280" xmlns="http://www.w3.org/2000/svg">
  <defs>
    <linearGradient id="headerGrad10" x1="0%" y1="0%" x2="100%" y2="100%">
      <stop offset="0%" style="stop-color:#f8fafc;stop-opacity:1" />
      <stop offset="100%" style="stop-color:#ffffff;stop-opacity:1" />
    </linearGradient>
    <linearGradient id="accentGrad10" x1="0%" y1="0%" x2="100%" y2="0%">
      <stop offset="0%" style="stop-color:#dc2626;stop-opacity:1" />
      <stop offset="100%" style="stop-color:#ef4444;stop-opacity:1" />
    </linearGradient>
  </defs>
  <!-- Background -->
  <rect width="200" height="280" fill="#ffffff"/>
  
  <!-- Header with Name -->
  <rect x="0" y="0" width="200" height="70" fill="url(#headerGrad10)" stroke="#dc2626" stroke-width="0" stroke-dasharray="0 0 0 4"/>
  
  <!-- Name -->
  <rect x="20" y="20" width="120" height="12" fill="#dc2626" rx="3"/>
  <rect x="20" y="40" width="80" height="8" fill="#6b7280" rx="3"/>
  
  <!-- Professional Quote -->
  <rect x="20" y="55" width="160" height="6" fill="#4b5563" opacity="0.7" rx="2"/>
  
  <!-- Red accent line -->
  <rect x="0" y="66" width="200" height="4" fill="url(#accentGrad10)"/>
  
  <!-- Main Content - Multi-column Layout -->
  
  <!-- Left Column -->
  <rect x="20" y="85" width="80" height="180" fill="#ffffff" rx="8"/>
  
  <!-- Contact Section -->
  <rect x="25" y="90" width="70" height="6" fill="#dc2626" rx="2"/>
  <rect x="25" y="100" width="15" height="3" fill="#dc2626" opacity="0.4" rx="1"/>
  <rect x="45" y="100" width="45" height="3" fill="#4b5563" rx="1"/>
  <rect x="25" y="106" width="15" height="3" fill="#dc2626" opacity="0.4" rx="1"/>
  <rect x="45" y="106" width="40" height="3" fill="#4b5563" rx="1"/>
  <rect x="25" y="112" width="15" height="3" fill="#dc2626" opacity="0.4" rx="1"/>
  <rect x="45" y="112" width="35" height="3" fill="#4b5563" rx="1"/>
  
  <!-- Skills Section -->
  <rect x="25" y="130" width="70" height="6" fill="#dc2626" rx="2"/>
  <rect x="25" y="145" width="70" height="4" fill="#f3f4f6" rx="2"/>
  <rect x="25" y="145" width="55" height="4" fill="#dc2626" opacity="0.8" rx="2"/>
  <rect x="25" y="155" width="70" height="4" fill="#f3f4f6" rx="2"/>
  <rect x="25" y="155" width="60" height="4" fill="#dc2626" opacity="0.8" rx="2"/>
  <rect x="25" y="165" width="70" height="4" fill="#f3f4f6" rx="2"/>
  <rect x="25" y="165" width="50" height="4" fill="#dc2626" opacity="0.8" rx="2"/>
  
  <!-- Languages Section -->
  <rect x="25" y="185" width="70" height="6" fill="#dc2626" rx="2"/>
  <rect x="25" y="200" width="30" height="3" fill="#4b5563" rx="1"/>
  <rect x="60" y="200" width="20" height="3" fill="#dc2626" opacity="0.6" rx="1"/>
  <rect x="25" y="208" width="35" height="3" fill="#4b5563" rx="1"/>
  <rect x="65" y="208" width="15" height="3" fill="#dc2626" opacity="0.6" rx="1"/>
  
  <!-- Certifications -->
  <rect x="25" y="225" width="70" height="6" fill="#dc2626" rx="2"/>
  <rect x="25" y="240" width="60" height="3" fill="#4b5563" rx="1"/>
  <rect x="25" y="248" width="55" height="3" fill="#4b5563" rx="1"/>
  
  <!-- Right Column -->
  <rect x="110" y="85" width="75" height="180" fill="#ffffff" rx="8"/>
  
  <!-- Profile Section -->
  <rect x="115" y="90" width="65" height="6" fill="#dc2626" rx="2"/>
  <rect x="115" y="100" width="65" height="3" fill="#4b5563" opacity="0.6" rx="1"/>
  <rect x="115" y="105" width="60" height="3" fill="#4b5563" opacity="0.6" rx="1"/>
  <rect x="115" y="110" width="65" height="3" fill="#4b5563" opacity="0.6" rx="1"/>
  <rect x="115" y="115" width="55" height="3" fill="#4b5563" opacity="0.6" rx="1"/>
  
  <!-- Experience Section -->
  <rect x="115" y="135" width="65" height="6" fill="#dc2626" rx="2"/>
  <!-- Experience Entry 1 -->
  <rect x="115" y="150" width="65" height="25" fill="#f8fafc" stroke="#dc2626" stroke-width="0" stroke-dasharray="3 0 0 0" rx="6"/>
  <rect x="120" y="155" width="50" height="4" fill="#dc2626" rx="2"/>
  <rect x="120" y="162" width="40" height="3" fill="#6b7280" rx="1"/>
  <rect x="120" y="168" width="55" height="2" fill="#4b5563" opacity="0.5" rx="1"/>
  
  <!-- Experience Entry 2 -->
  <rect x="115" y="185" width="65" height="25" fill="#f8fafc" stroke="#dc2626" stroke-width="0" stroke-dasharray="3 0 0 0" rx="6"/>
  <rect x="120" y="190" width="45" height="4" fill="#dc2626" rx="2"/>
  <rect x="120" y="197" width="35" height="3" fill="#6b7280" rx="1"/>
  <rect x="120" y="203" width="50" height="2" fill="#4b5563" opacity="0.5" rx="1"/>
  
  <!-- Education Section -->
  <rect x="115" y="225" width="65" height="6" fill="#dc2626" rx="2"/>
  <rect x="115" y="240" width="65" height="15" fill="#f8fafc" stroke="#dc2626" stroke-width="0" stroke-dasharray="3 0 0 0" rx="6"/>
  <rect x="120" y="245" width="45" height="3" fill="#dc2626" rx="1"/>
  <rect x="120" y="251" width="35" height="2" fill="#6b7280" rx="1"/>
  
  <!-- Decorative elements -->
  <circle cx="10" cy="85" r="2" fill="#dc2626" opacity="0.6"/>
  <circle cx="190" cy="85" r="2" fill="#dc2626" opacity="0.6"/>
  <circle cx="10" cy="265" r="2" fill="#dc2626" opacity="0.6"/>
  <circle cx="190" cy="265" r="2" fill="#dc2626" opacity="0.6"/>
</svg>