<svg viewBox="0 0 200 280" xmlns="http://www.w3.org/2000/svg">
  <defs>
    <linearGradient id="headerGrad11" x1="0%" y1="0%" x2="100%" y2="100%">
      <stop offset="0%" style="stop-color:#667eea;stop-opacity:1" />
      <stop offset="100%" style="stop-color:#764ba2;stop-opacity:1" />
    </linearGradient>
    <linearGradient id="skillGrad11" x1="0%" y1="0%" x2="100%" y2="0%">
      <stop offset="0%" style="stop-color:#667eea;stop-opacity:1" />
      <stop offset="100%" style="stop-color:#764ba2;stop-opacity:1" />
    </linearGradient>
  </defs>
  <!-- Background -->
  <rect width="200" height="280" fill="#ffffff"/>
  
  <!-- Header avec gradient -->
  <rect x="0" y="0" width="200" height="80" fill="url(#headerGrad11)"/>
  
  <!-- Pattern de points -->
  <circle cx="20" cy="20" r="1" fill="#ffffff" opacity="0.2"/>
  <circle cx="40" cy="30" r="1" fill="#ffffff" opacity="0.2"/>
  <circle cx="160" cy="25" r="1" fill="#ffffff" opacity="0.2"/>
  <circle cx="180" cy="35" r="1" fill="#ffffff" opacity="0.2"/>
  
  <!-- Profile Photo avec border animé -->
  <circle cx="160" cy="40" r="16" fill="#ffffff" opacity="0.3"/>
  <circle cx="160" cy="40" r="12" fill="#ffffff"/>
  
  <!-- Name et Title -->
  <rect x="20" y="25" width="80" height="8" fill="#ffffff" rx="2"/>
  <rect x="20" y="38" width="60" height="5" fill="#ffffff" opacity="0.8" rx="2"/>
  
  <!-- Contact compact avec icônes -->
  <rect x="20" y="50" width="8" height="4" fill="#ffffff" opacity="0.6" rx="1"/>
  <rect x="32" y="50" width="25" height="4" fill="#ffffff" opacity="0.8" rx="1"/>
  <rect x="62" y="50" width="8" height="4" fill="#ffffff" opacity="0.6" rx="1"/>
  <rect x="74" y="50" width="30" height="4" fill="#ffffff" opacity="0.8" rx="1"/>
  
  <!-- Main Content Grid -->
  
  <!-- Left Column - Sidebar -->
  <rect x="0" y="80" width="75" height="200" fill="#f8fafc"/>
  
  <!-- Profile Section -->
  <rect x="10" y="90" width="8" height="3" fill="#667eea" rx="1"/>
  <rect x="22" y="90" width="40" height="3" fill="#667eea" rx="1"/>
  <rect x="10" y="98" width="55" height="2" fill="#4a5568" opacity="0.6" rx="1"/>
  <rect x="10" y="102" width="50" height="2" fill="#4a5568" opacity="0.6" rx="1"/>
  <rect x="10" y="106" width="45" height="2" fill="#4a5568" opacity="0.6" rx="1"/>
  
  <!-- Skills compactes avec dots -->
  <rect x="10" y="120" width="8" height="3" fill="#667eea" rx="1"/>
  <rect x="22" y="120" width="35" height="3" fill="#667eea" rx="1"/>
  
  <!-- Skill chip 1 -->
  <rect x="10" y="130" width="55" height="8" fill="#ffffff" rx="4"/>
  <rect x="13" y="133" width="25" height="2" fill="#2d3748" rx="1"/>
  <circle cx="45" cy="134" r="1" fill="url(#skillGrad11)"/>
  <circle cx="48" cy="134" r="1" fill="url(#skillGrad11)"/>
  <circle cx="51" cy="134" r="1" fill="url(#skillGrad11)"/>
  <circle cx="54" cy="134" r="1" fill="#e2e8f0"/>
  <circle cx="57" cy="134" r="1" fill="#e2e8f0"/>
  
  <!-- Skill chip 2 -->
  <rect x="10" y="142" width="55" height="8" fill="#ffffff" rx="4"/>
  <rect x="13" y="145" width="30" height="2" fill="#2d3748" rx="1"/>
  <circle cx="45" cy="146" r="1" fill="url(#skillGrad11)"/>
  <circle cx="48" cy="146" r="1" fill="url(#skillGrad11)"/>
  <circle cx="51" cy="146" r="1" fill="url(#skillGrad11)"/>
  <circle cx="54" cy="146" r="1" fill="url(#skillGrad11)"/>
  <circle cx="57" cy="146" r="1" fill="#e2e8f0"/>
  
  <!-- Languages Section -->
  <rect x="10" y="165" width="8" height="3" fill="#667eea" rx="1"/>
  <rect x="22" y="165" width="30" height="3" fill="#667eea" rx="1"/>
  
  <rect x="10" y="175" width="55" height="6" fill="#ffffff" rx="3"/>
  <rect x="13" y="177" width="20" height="2" fill="#2d3748" rx="1"/>
  <rect x="45" y="177" width="15" height="2" fill="#667eea" rx="1"/>
  
  <rect x="10" y="185" width="55" height="6" fill="#ffffff" rx="3"/>
  <rect x="13" y="187" width="25" height="2" fill="#2d3748" rx="1"/>
  <rect x="45" y="187" width="12" height="2" fill="#667eea" rx="1"/>
  
  <!-- Certification Badge -->
  <rect x="10" y="205" width="55" height="12" fill="url(#skillGrad11)" rx="6"/>
  <rect x="15" y="209" width="35" height="2" fill="#ffffff" rx="1"/>
  <rect x="15" y="213" width="25" height="1" fill="#ffffff" opacity="0.8" rx="1"/>
  
  <!-- Right Column -->
  <rect x="75" y="80" width="125" height="200" fill="#ffffff"/>
  
  <!-- Experience Section avec timeline -->
  <rect x="85" y="90" width="8" height="3" fill="#667eea" rx="1"/>
  <rect x="97" y="90" width="80" height="3" fill="#667eea" rx="1"/>
  
  <!-- Timeline Item 1 -->
  <circle cx="90" cy="110" r="3" fill="url(#skillGrad11)"/>
  <rect x="91" y="115" width="1" height="25" fill="url(#skillGrad11)" opacity="0.5"/>
  
  <rect x="100" y="105" width="90" height="20" fill="#ffffff" stroke="#667eea" stroke-width="0" stroke-dasharray="4 0 0 0" rx="6"/>
  <rect x="105" y="109" width="50" height="3" fill="#2d3748" rx="1"/>
  <rect x="105" y="114" width="35" height="2" fill="#667eea" rx="1"/>
  <rect x="145" y="114" width="25" height="2" fill="#718096" rx="1"/>
  <rect x="105" y="118" width="75" height="1" fill="#4a5568" opacity="0.6" rx="1"/>
  
  <!-- Timeline Item 2 -->
  <circle cx="90" cy="140" r="3" fill="url(#skillGrad11)"/>
  <rect x="91" y="145" width="1" height="25" fill="url(#skillGrad11)" opacity="0.3"/>
  
  <rect x="100" y="135" width="90" height="20" fill="#ffffff" stroke="#667eea" stroke-width="0" stroke-dasharray="4 0 0 0" rx="6"/>
  <rect x="105" y="139" width="45" height="3" fill="#2d3748" rx="1"/>
  <rect x="105" y="144" width="40" height="2" fill="#667eea" rx="1"/>
  <rect x="150" y="144" width="20" height="2" fill="#718096" rx="1"/>
  <rect x="105" y="148" width="70" height="1" fill="#4a5568" opacity="0.6" rx="1"/>
  
  <!-- Education Section -->
  <rect x="85" y="175" width="8" height="3" fill="#667eea" rx="1"/>
  <rect x="97" y="175" width="50" height="3" fill="#667eea" rx="1"/>
  
  <!-- Education Card -->
  <rect x="85" y="190" width="105" height="18" fill="#f8fafc" stroke="#667eea" stroke-width="0" stroke-dasharray="4 0 0 0" rx="5"/>
  <rect x="90" y="195" width="60" height="3" fill="#2d3748" rx="1"/>
  <rect x="155" y="195" width="20" height="3" fill="#667eea" rx="1"/>
  <rect x="90" y="200" width="50" height="2" fill="#667eea" rx="1"/>
  
  <!-- Projects Section -->
  <rect x="85" y="220" width="8" height="3" fill="#667eea" rx="1"/>
  <rect x="97" y="220" width="40" height="3" fill="#667eea" rx="1"/>
  
  <!-- Project Card -->
  <rect x="85" y="235" width="105" height="25" fill="#ffffff" stroke="#667eea" stroke-width="0" stroke-dasharray="0 0 4 0" rx="5"/>
  <rect x="90" y="240" width="50" height="3" fill="#2d3748" rx="1"/>
  <rect x="90" y="246" width="15" height="2" fill="url(#skillGrad11)" rx="1"/>
  <rect x="108" y="246" width="18" height="2" fill="url(#skillGrad11)" rx="1"/>
  <rect x="129" y="246" width="12" height="2" fill="url(#skillGrad11)" rx="1"/>
  <rect x="90" y="252" width="85" height="1" fill="#4a5568" opacity="0.6" rx="1"/>
  
  <!-- Decorative elements -->
  <circle cx="5" cy="85" r="1" fill="#667eea" opacity="0.6"/>
  <circle cx="195" cy="85" r="1" fill="#667eea" opacity="0.6"/>
  <circle cx="5" cy="275" r="1" fill="#667eea" opacity="0.6"/>
  <circle cx="195" cy="275" r="1" fill="#667eea" opacity="0.6"/>
</svg>