<svg viewBox="0 0 200 280" xmlns="http://www.w3.org/2000/svg">
  <defs>
    <linearGradient id="bgGrad06" x1="0%" y1="0%" x2="100%" y2="100%">
      <stop offset="0%" style="stop-color:#f5f7fa;stop-opacity:1" />
      <stop offset="100%" style="stop-color:#c3cfe2;stop-opacity:1" />
    </linearGradient>
    <linearGradient id="cardGrad06" x1="0%" y1="0%" x2="100%" y2="100%">
      <stop offset="0%" style="stop-color:#667eea;stop-opacity:1" />
      <stop offset="100%" style="stop-color:#764ba2;stop-opacity:1" />
    </linearGradient>
  </defs>
  <!-- Background -->
  <rect width="200" height="280" fill="url(#bgGrad06)"/>
  
  <!-- Header Card -->
  <rect x="10" y="10" width="180" height="60" fill="#ffffff" rx="8" opacity="0.95"/>
  <!-- Profile Photo -->
  <circle cx="50" cy="40" r="15" fill="url(#cardGrad06)"/>
  <!-- Name and Title -->
  <rect x="75" y="30" width="80" height="8" fill="#1a1a1a" opacity="0.8" rx="2"/>
  <rect x="75" y="42" width="60" height="6" fill="url(#cardGrad06)" rx="2"/>
  <!-- Contact Grid -->
  <rect x="75" y="55" width="25" height="8" fill="url(#cardGrad06)" opacity="0.8" rx="4"/>
  <rect x="105" y="55" width="25" height="8" fill="url(#cardGrad06)" opacity="0.8" rx="4"/>
  <rect x="135" y="55" width="25" height="8" fill="url(#cardGrad06)" opacity="0.8" rx="4"/>
  <rect x="165" y="55" width="20" height="8" fill="url(#cardGrad06)" opacity="0.8" rx="4"/>
  
  <!-- Left Column Cards -->
  <!-- Profile Card -->
  <rect x="10" y="80" width="85" height="45" fill="#ffffff" rx="8" opacity="0.95"/>
  <rect x="15" y="85" width="60" height="6" fill="url(#cardGrad06)" rx="2"/>
  <rect x="15" y="95" width="75" height="3" fill="#4a4a4a" opacity="0.6" rx="1"/>
  <rect x="15" y="100" width="70" height="3" fill="#4a4a4a" opacity="0.6" rx="1"/>
  <rect x="15" y="105" width="65" height="3" fill="#4a4a4a" opacity="0.6" rx="1"/>
  <rect x="15" y="110" width="60" height="3" fill="#4a4a4a" opacity="0.6" rx="1"/>
  
  <!-- Skills Card -->
  <rect x="10" y="135" width="85" height="50" fill="#ffffff" rx="8" opacity="0.95"/>
  <rect x="15" y="140" width="50" height="6" fill="url(#cardGrad06)" rx="2"/>
  <rect x="15" y="152" width="20" height="12" fill="url(#cardGrad06)" rx="6"/>
  <rect x="38" y="152" width="20" height="12" fill="url(#cardGrad06)" rx="6"/>
  <rect x="61" y="152" width="20" height="12" fill="url(#cardGrad06)" rx="6"/>
  <rect x="15" y="168" width="20" height="12" fill="url(#cardGrad06)" rx="6"/>
  <rect x="38" y="168" width="20" height="12" fill="url(#cardGrad06)" rx="6"/>
  
  <!-- Languages Card -->
  <rect x="10" y="195" width="85" height="75" fill="#ffffff" rx="8" opacity="0.95"/>
  <rect x="15" y="200" width="40" height="6" fill="url(#cardGrad06)" rx="2"/>
  <rect x="15" y="215" width="75" height="8" fill="#f8f9ff" rx="4"/>
  <rect x="15" y="230" width="75" height="8" fill="#f8f9ff" rx="4"/>
  <rect x="15" y="245" width="75" height="8" fill="#f8f9ff" rx="4"/>
  
  <!-- Right Column Cards -->
  <!-- Experience Card -->
  <rect x="105" y="80" width="85" height="80" fill="#ffffff" rx="8" opacity="0.95"/>
  <rect x="110" y="85" width="60" height="6" fill="url(#cardGrad06)" rx="2"/>
  <rect x="110" y="98" width="75" height="15" fill="#f8f9ff" rx="6"/>
  <rect x="110" y="118" width="75" height="15" fill="#f8f9ff" rx="6"/>
  <rect x="110" y="138" width="75" height="15" fill="#f8f9ff" rx="6"/>
  
  <!-- Education Card -->
  <rect x="105" y="170" width="85" height="50" fill="#ffffff" rx="8" opacity="0.95"/>
  <rect x="110" y="175" width="50" height="6" fill="url(#cardGrad06)" rx="2"/>
  <rect x="110" y="188" width="75" height="12" fill="#f8f9ff" rx="6"/>
  <rect x="110" y="205" width="75" height="12" fill="#f8f9ff" rx="6"/>
  
  <!-- Projects Card -->
  <rect x="105" y="230" width="85" height="40" fill="#ffffff" rx="8" opacity="0.95"/>
  <rect x="110" y="235" width="40" height="6" fill="url(#cardGrad06)" rx="2"/>
  <rect x="110" y="248" width="75" height="8" fill="#f8f9ff" rx="4"/>
  <rect x="110" y="258" width="75" height="8" fill="#f8f9ff" rx="4"/>
</svg>