<svg viewBox="0 0 200 280" xmlns="http://www.w3.org/2000/svg">
  <defs>
    <linearGradient id="timelineGrad07" x1="0%" y1="0%" x2="0%" y2="100%">
      <stop offset="0%" style="stop-color:#f59e0b;stop-opacity:1" />
      <stop offset="100%" style="stop-color:#ef4444;stop-opacity:1" />
    </linearGradient>
  </defs>
  <!-- Background -->
  <rect width="200" height="280" fill="#fafafa"/>
  
  <!-- Timeline Spine -->
  <line x1="100" y1="0" x2="100" y2="280" stroke="url(#timelineGrad07)" stroke-width="2"/>
  
  <!-- Header Card -->
  <rect x="20" y="10" width="160" height="50" fill="#ffffff" rx="10" opacity="0.95"/>
  <!-- Profile Photo -->
  <circle cx="100" cy="30" r="12" fill="url(#timelineGrad07)"/>
  <!-- Name -->
  <rect x="60" y="45" width="80" height="6" fill="#1a1a1a" opacity="0.8" rx="2"/>
  <rect x="70" y="53" width="60" height="4" fill="url(#timelineGrad07)" rx="2"/>
  
  <!-- Profile Section -->
  <circle cx="100" cy="80" r="8" fill="url(#timelineGrad07)"/>
  <rect x="115" y="70" width="75" height="20" fill="#ffffff" rx="8" opacity="0.95"/>
  <rect x="120" y="75" width="50" height="4" fill="url(#timelineGrad07)" rx="2"/>
  <rect x="120" y="82" width="65" height="2" fill="#4a4a4a" opacity="0.6" rx="1"/>
  <rect x="120" y="86" width="60" height="2" fill="#4a4a4a" opacity="0.6" rx="1"/>
  
  <!-- Experience Items (alternating sides) -->
  <!-- Left Experience -->
  <circle cx="100" cy="115" r="6" fill="url(#timelineGrad07)"/>
  <rect x="25" y="105" width="65" height="20" fill="#ffffff" rx="8" opacity="0.95"/>
  <rect x="30" y="110" width="40" height="4" fill="#1a1a1a" opacity="0.8" rx="2"/>
  <rect x="30" y="117" width="50" height="3" fill="url(#timelineGrad07)" rx="1"/>
  
  <!-- Right Experience -->
  <circle cx="100" cy="145" r="6" fill="url(#timelineGrad07)"/>
  <rect x="110" y="135" width="65" height="20" fill="#ffffff" rx="8" opacity="0.95"/>
  <rect x="115" y="140" width="40" height="4" fill="#1a1a1a" opacity="0.8" rx="2"/>
  <rect x="115" y="147" width="50" height="3" fill="url(#timelineGrad07)" rx="1"/>
  
  <!-- Left Experience -->
  <circle cx="100" cy="175" r="6" fill="url(#timelineGrad07)"/>
  <rect x="25" y="165" width="65" height="20" fill="#ffffff" rx="8" opacity="0.95"/>
  <rect x="30" y="170" width="40" height="4" fill="#1a1a1a" opacity="0.8" rx="2"/>
  <rect x="30" y="177" width="50" height="3" fill="url(#timelineGrad07)" rx="1"/>
  
  <!-- Education Section -->
  <circle cx="100" cy="205" r="6" fill="url(#timelineGrad07)"/>
  <rect x="110" y="195" width="65" height="20" fill="#ffffff" rx="8" opacity="0.95"/>
  <rect x="115" y="200" width="40" height="4" fill="#1a1a1a" opacity="0.8" rx="2"/>
  <rect x="115" y="207" width="50" height="3" fill="url(#timelineGrad07)" rx="1"/>
  
  <!-- Skills and Languages Footer -->
  <circle cx="100" cy="235" r="6" fill="url(#timelineGrad07)"/>
  <!-- Skills (left) -->
  <rect x="25" y="225" width="65" height="20" fill="#ffffff" rx="8" opacity="0.95"/>
  <rect x="30" y="230" width="30" height="3" fill="url(#timelineGrad07)" rx="1"/>
  <rect x="30" y="235" width="15" height="8" fill="url(#timelineGrad07)" rx="4"/>
  <rect x="48" y="235" width="15" height="8" fill="url(#timelineGrad07)" rx="4"/>
  <rect x="66" y="235" width="15" height="8" fill="url(#timelineGrad07)" rx="4"/>
  
  <!-- Languages (right) -->
  <rect x="110" y="225" width="65" height="20" fill="#ffffff" rx="8" opacity="0.95"/>
  <rect x="115" y="230" width="30" height="3" fill="url(#timelineGrad07)" rx="1"/>
  <rect x="115" y="235" width="55" height="2" fill="url(#timelineGrad07)" opacity="0.3" rx="1"/>
  <rect x="115" y="240" width="55" height="2" fill="url(#timelineGrad07)" opacity="0.3" rx="1"/>
  
  <!-- Decorative elements -->
  <circle cx="20" cy="20" r="15" fill="url(#timelineGrad07)" opacity="0.1"/>
  <circle cx="180" cy="260" r="20" fill="url(#timelineGrad07)" opacity="0.05"/>
</svg>