<svg viewBox="0 0 200 280" xmlns="http://www.w3.org/2000/svg">
  <defs>
    <linearGradient id="headerGrad09" x1="0%" y1="0%" x2="100%" y2="100%">
      <stop offset="0%" style="stop-color:#f8fafc;stop-opacity:1" />
      <stop offset="100%" style="stop-color:#ffffff;stop-opacity:1" />
    </linearGradient>
    <linearGradient id="skillGrad09" x1="0%" y1="0%" x2="100%" y2="0%">
      <stop offset="0%" style="stop-color:#2563eb;stop-opacity:1" />
      <stop offset="100%" style="stop-color:#3b82f6;stop-opacity:1" />
    </linearGradient>
  </defs>
  <!-- Background -->
  <rect width="200" height="280" fill="#ffffff"/>
  
  <!-- Header -->
  <rect x="0" y="0" width="200" height="60" fill="url(#headerGrad09)" stroke="#2563eb" stroke-width="0" stroke-dasharray="0 0 4 0"/>
  <rect x="0" y="56" width="200" height="4" fill="#2563eb"/>
  
  <!-- Profile Photo -->
  <rect x="15" y="15" width="30" height="30" fill="#2563eb" rx="6"/>
  
  <!-- Name and Title -->
  <rect x="55" y="15" width="80" height="8" fill="#2563eb" rx="2"/>
  <rect x="55" y="27" width="60" height="6" fill="#4b5563" rx="2"/>
  
  <!-- Contact Info Grid -->
  <rect x="55" y="40" width="35" height="4" fill="#6b7280" rx="1"/>
  <rect x="95" y="40" width="35" height="4" fill="#6b7280" rx="1"/>
  <rect x="135" y="40" width="35" height="4" fill="#6b7280" rx="1"/>
  
  <!-- Main Content Area -->
  <rect x="15" y="70" width="120" height="50" fill="#f8fafc" rx="6"/>
  <!-- Profile Section -->
  <rect x="20" y="75" width="60" height="6" fill="#2563eb" rx="2"/>
  <rect x="20" y="85" width="110" height="3" fill="#4b5563" opacity="0.6" rx="1"/>
  <rect x="20" y="90" width="105" height="3" fill="#4b5563" opacity="0.6" rx="1"/>
  <rect x="20" y="95" width="100" height="3" fill="#4b5563" opacity="0.6" rx="1"/>
  
  <!-- Experience Cards -->
  <rect x="20" y="105" width="110" height="12" fill="#f8fafc" stroke="#2563eb" stroke-width="0" stroke-dasharray="4 0 0 0" rx="6"/>
  
  <!-- Skills Sidebar -->
  <rect x="145" y="70" width="45" height="200" fill="#f8fafc" rx="6"/>
  <!-- Skills Header -->
  <rect x="150" y="75" width="35" height="12" fill="#2563eb" rx="6"/>
  
  <!-- Skill Bars -->
  <rect x="150" y="95" width="35" height="4" fill="#e5e7eb" rx="2"/>
  <rect x="150" y="95" width="30" height="4" fill="url(#skillGrad09)" rx="2"/>
  
  <rect x="150" y="105" width="35" height="4" fill="#e5e7eb" rx="2"/>
  <rect x="150" y="105" width="28" height="4" fill="url(#skillGrad09)" rx="2"/>
  
  <rect x="150" y="115" width="35" height="4" fill="#e5e7eb" rx="2"/>
  <rect x="150" y="115" width="32" height="4" fill="url(#skillGrad09)" rx="2"/>
  
  <rect x="150" y="125" width="35" height="4" fill="#e5e7eb" rx="2"/>
  <rect x="150" y="125" width="29" height="4" fill="url(#skillGrad09)" rx="2"/>
  
  <rect x="150" y="135" width="35" height="4" fill="#e5e7eb" rx="2"/>
  <rect x="150" y="135" width="31" height="4" fill="url(#skillGrad09)" rx="2"/>
  
  <!-- Languages Section -->
  <rect x="150" y="155" width="35" height="12" fill="#2563eb" rx="6"/>
  
  <rect x="150" y="175" width="35" height="4" fill="#e5e7eb" rx="2"/>
  <rect x="150" y="175" width="28" height="4" fill="url(#skillGrad09)" rx="2"/>
  
  <rect x="150" y="185" width="35" height="4" fill="#e5e7eb" rx="2"/>
  <rect x="150" y="185" width="26" height="4" fill="url(#skillGrad09)" rx="2"/>
  
  <!-- Certifications Section -->
  <rect x="150" y="205" width="35" height="12" fill="#2563eb" rx="6"/>
  
  <rect x="150" y="225" width="35" height="8" fill="#ffffff" stroke="#2563eb" stroke-width="0" stroke-dasharray="3 0 0 0" rx="4"/>
  <rect x="150" y="238" width="35" height="8" fill="#ffffff" stroke="#2563eb" stroke-width="0" stroke-dasharray="3 0 0 0" rx="4"/>
  <rect x="150" y="251" width="35" height="8" fill="#ffffff" stroke="#2563eb" stroke-width="0" stroke-dasharray="3 0 0 0" rx="4"/>
  
  <!-- Experience Cards in Main Area -->
  <rect x="20" y="130" width="110" height="12" fill="#f8fafc" stroke="#2563eb" stroke-width="0" stroke-dasharray="4 0 0 0" rx="6"/>
  <rect x="20" y="150" width="110" height="12" fill="#f8fafc" stroke="#2563eb" stroke-width="0" stroke-dasharray="4 0 0 0" rx="6"/>
  
  <!-- Education Section -->
  <rect x="20" y="175" width="60" height="6" fill="#2563eb" rx="2"/>
  <rect x="20" y="190" width="110" height="12" fill="#f8fafc" stroke="#2563eb" stroke-width="0" stroke-dasharray="4 0 0 0" rx="6"/>
  <rect x="20" y="210" width="110" height="12" fill="#f8fafc" stroke="#2563eb" stroke-width="0" stroke-dasharray="4 0 0 0" rx="6"/>
</svg>