<svg viewBox="0 0 200 280" xmlns="http://www.w3.org/2000/svg">
  <defs>
    <linearGradient id="grad05" x1="0%" y1="0%" x2="0%" y2="100%">
      <stop offset="0%" style="stop-color:#6366f1;stop-opacity:1" />
      <stop offset="100%" style="stop-color:#4f46e5;stop-opacity:1" />
    </linearGradient>
  </defs>
  <!-- Background -->
  <rect width="200" height="280" fill="#f8fafc"/>
  
  <!-- Sidebar -->
  <rect x="0" y="0" width="70" height="280" fill="url(#grad05)"/>
  
  <!-- Profile Photo -->
  <circle cx="35" cy="40" r="18" fill="#ffffff" opacity="0.9"/>
  
  <!-- Name -->
  <rect x="5" y="70" width="60" height="8" fill="#ffffff" opacity="0.9" rx="2"/>
  <rect x="10" y="82" width="50" height="6" fill="#ffffff" opacity="0.7" rx="2"/>
  
  <!-- Contact Icons -->
  <rect x="8" y="100" width="54" height="4" fill="#ffffff" opacity="0.6" rx="2"/>
  <rect x="8" y="108" width="54" height="4" fill="#ffffff" opacity="0.6" rx="2"/>
  <rect x="8" y="116" width="54" height="4" fill="#ffffff" opacity="0.6" rx="2"/>
  
  <!-- Skills -->
  <rect x="8" y="140" width="54" height="6" fill="#ffffff" opacity="0.8" rx="2"/>
  <rect x="8" y="152" width="25" height="12" fill="#ffffff" opacity="0.7" rx="6"/>
  <rect x="37" y="152" width="25" height="12" fill="#ffffff" opacity="0.7" rx="6"/>
  <rect x="8" y="168" width="25" height="12" fill="#ffffff" opacity="0.7" rx="6"/>
  <rect x="37" y="168" width="25" height="12" fill="#ffffff" opacity="0.7" rx="6"/>
  
  <!-- Languages -->
  <rect x="8" y="200" width="54" height="6" fill="#ffffff" opacity="0.8" rx="2"/>
  <rect x="8" y="215" width="54" height="3" fill="#ffffff" opacity="0.6" rx="1"/>
  <rect x="8" y="222" width="54" height="3" fill="#ffffff" opacity="0.6" rx="1"/>
  
  <!-- Main Content -->
  <rect x="80" y="20" width="110" height="8" fill="#6366f1" rx="2"/>
  <rect x="80" y="35" width="90" height="4" fill="#94a3b8" rx="1"/>
  <rect x="80" y="42" width="100" height="4" fill="#94a3b8" rx="1"/>
  <rect x="80" y="49" width="85" height="4" fill="#94a3b8" rx="1"/>
  
  <!-- Experience Timeline -->
  <line x1="85" y1="70" x2="85" y2="220" stroke="#6366f1" stroke-width="2"/>
  <circle cx="85" cy="80" r="4" fill="#6366f1"/>
  <rect x="95" y="75" width="80" height="10" fill="#f1f5f9" rx="2"/>
  
  <circle cx="85" cy="110" r="4" fill="#6366f1"/>
  <rect x="95" y="105" width="80" height="10" fill="#f1f5f9" rx="2"/>
  
  <circle cx="85" cy="140" r="4" fill="#6366f1"/>
  <rect x="95" y="135" width="80" height="10" fill="#f1f5f9" rx="2"/>
</svg>